<?xml version="1.0" encoding="utf-8"?>
<!-- Generator: Adobe Illustrator 15.0.0, SVG Export Plug-In  -->
<!DOCTYPE svg PUBLIC "-//W3C//DTD SVG 1.1//EN" "http://www.w3.org/Graphics/SVG/1.1/DTD/svg11.dtd" [
	<!ENTITY ns_flows "http://ns.adobe.com/Flows/1.0/">
]>
<svg version="1.1"
	 xmlns="http://www.w3.org/2000/svg" xmlns:xlink="http://www.w3.org/1999/xlink" xmlns:a="http://ns.adobe.com/AdobeSVGViewerExtensions/3.0/"
	 x="0px" y="0px" width="21px" height="24px" viewBox="-0.148 -0.281 21 24" enable-background="new -0.148 -0.281 21 24"
	 xml:space="preserve">
<defs>
</defs>
<path display="none" fill-rule="evenodd" clip-rule="evenodd" fill="#FFFFFF" d="M4.917,13.625L4.917,13.625
	c4.879,4.889,4.879,4.889,4.879,4.889l0.557,0.557l0.554-0.557c4.881-4.889,4.881-4.889,4.881-4.889
	c0.555-0.553,0.555-0.553,0-1.111c0,0-0.555,0-1.072,0c-3.809,3.814-3.809,3.814-3.809,3.814c0-15.812,0-15.812,0-15.812
	S10.906,0,10.353,0C9.796,0,9.796,0.517,9.796,0.517c0,15.812,0,15.812,0,15.812C5.99,12.514,5.99,12.514,5.99,12.514
	c-0.519,0-1.073,0-1.073,0C4.364,13.072,4.364,13.072,4.917,13.625L4.917,13.625z M17.414,2.703L17.414,2.703
	c-2.182,0-2.182,0-2.182,0c0,1.627,0,1.627,0,1.627c2.182,0,2.182,0,2.182,0c1.107,0,1.664,0.558,1.664,1.668
	c0,14.145,0,14.145,0,14.145c0,1.111-0.557,1.629-1.664,1.629c-14.124,0-14.124,0-14.124,0c-1.107,0-1.664-0.518-1.664-1.629
	c0-14.145,0-14.145,0-14.145c0-1.11,0.557-1.668,1.664-1.668c2.182,0,2.182,0,2.182,0c0-1.627,0-1.627,0-1.627
	c-2.182,0-2.182,0-2.182,0C1.626,2.703,0,4.33,0,5.998c0,14.145,0,14.145,0,14.145c0,1.629,1.626,3.295,3.29,3.295
	c14.124,0,14.124,0,14.124,0c1.664,0,3.289-1.666,3.289-3.295c0-14.145,0-14.145,0-14.145C20.703,4.33,19.078,2.703,17.414,2.703
	L17.414,2.703z"/>
<path fill-rule="evenodd" clip-rule="evenodd" fill="#FFFFFF" d="M15.035,18.245L15.035,18.245c0,0.951-0.954,1.394-1.398,1.394
	c-9.813,0-9.813,0-9.813,0c-0.951,0-1.426-0.442-1.426-1.394c0-9.813,0-9.813,0-9.813c0-0.447,0.475-1.399,1.426-1.399
	c0.922,0,0.922,0,0.922,0c0-0.922,0-0.922,0-0.922c-0.922,0-0.922,0-0.922,0c-1.426,0-2.824,0.922-2.824,2.321
	c0,9.813,0,9.813,0,9.813c0,1.394,1.398,2.825,2.824,2.825c9.813,0,9.813,0,9.813,0c1.398,0,2.321-1.432,2.321-2.825
	c0-0.922,0-0.922,0-0.922c-0.923,0-0.923,0-0.923,0V18.245L15.035,18.245L15.035,18.245z"/>
<path fill-rule="evenodd" clip-rule="evenodd" fill="#FFFFFF" d="M19.704,13.575L19.704,13.575c0,0.475-0.479,0.921-0.92,0.921
	c-10.293,0-10.293,0-10.293,0c-0.474,0-0.92-0.446-0.92-0.921c0-10.291,0-10.291,0-10.291c0-0.475,0.446-0.917,0.92-0.917
	c10.293,0,10.293,0,10.293,0c0.441,0,0.92,0.442,0.92,0.917V13.575L19.704,13.575L19.704,13.575z"/>
</svg>
