<?xml version="1.0" encoding="utf-8"?>
<!-- Generator: Adobe Illustrator 15.0.0, SVG Export Plug-In . SVG Version: 6.00 Build 0)  -->
<!DOCTYPE svg PUBLIC "-//W3C//DTD SVG 1.1//EN" "http://www.w3.org/Graphics/SVG/1.1/DTD/svg11.dtd">
<svg version="1.1" xmlns="http://www.w3.org/2000/svg" xmlns:xlink="http://www.w3.org/1999/xlink" x="0px" y="0px" width="44px"
	 height="38px" viewBox="0 0 44 38" enable-background="new 0 0 44 38" xml:space="preserve">
<g id="Layer_2" display="none">
	<rect display="inline" width="44" height="38"/>
</g>
<g id="icon">
	<g id="contact">
		<path fill-rule="evenodd" clip-rule="evenodd" fill="#FFFFFF" d="M43.538,37.012L43.538,37.012c0,0.493-0.994,0.988-1.49,0.988
			c-10.006,0-10.006,0-10.006,0c0.992,0,1.488-0.495,1.488-1.484c0,0,0-6.01-4.469-7.986c-2.059-0.992-2.059-0.992-3.053-0.992
			c0-2.473,0-2.473,0-2.473s-0.992-1.063-1.49-3.538c-0.498,0-0.498-0.495-0.498-1.481c0-0.496-0.496-2.049,0-2.049
			c0-0.993,0-2.476,0-2.969c0-1.982,1.988-3.959,5.041-3.959c3.476,0,4.967,1.978,5.463,3.959c0,0.494-0.496,1.977-0.496,2.969
			c0.992,0,0.496,1.553,0.496,2.049c0,0.986-0.496,1.481-0.994,1.481c-0.496,2.476-1.488,3.538-1.488,3.538c0,2.473,0,2.473,0,2.473
			s0.992,0,3.477,1.486c3.049,0.988,2.057,0,4.043,1.482C43.538,31.994,43.538,37.012,43.538,37.012L43.538,37.012z M23.524,28.031
			L23.524,28.031c2.982,0.992,1.986,0.498,4.471,1.486c4.047,1.979,4.047,6.998,4.047,6.998c0,0.989-0.996,1.484-1.492,1.484
			C1.951,38,1.951,38,1.951,38c-0.497,0-1.489-0.495-1.489-1.484c0,0,0-5.02,3.973-6.998c2.555-0.988,1.492,0,4.541-1.486
			c2.982-0.988,3.977-1.483,3.977-1.483c0-3.04,0-3.04,0-3.04s-1.491-0.988-1.491-3.463c-0.995,0-0.995-0.99-0.995-1.484
			c0-0.564-0.496-2.545,0.498-2.545c-0.498-1.484-0.498-2.476-0.498-2.971c0.498-2.545,2.486-4.522,5.537-5.018
			c3.973,0.496,5.535,2.473,6.031,5.018c0,0.495,0,1.487-0.496,2.971c0.992,0,0.496,1.98,0.496,2.545c0,0.494,0,1.484-0.994,1.484
			c-0.565,2.475-1.559,3.463-1.559,3.463c0,3.04,0,3.04,0,3.04S20.475,26.548,23.524,28.031L23.524,28.031z"/>
	</g>
</g>
</svg>
