<?xml version="1.0" encoding="utf-8"?>
<!-- Generator: Adobe Illustrator 15.0.0, SVG Export Plug-In . SVG Version: 6.00 Build 0)  -->
<!DOCTYPE svg PUBLIC "-//W3C//DTD SVG 1.1//EN" "http://www.w3.org/Graphics/SVG/1.1/DTD/svg11.dtd">
<svg version="1.1" id="Layer_1" xmlns="http://www.w3.org/2000/svg" xmlns:xlink="http://www.w3.org/1999/xlink" x="0px" y="0px"
	 width="21px" height="24px" viewBox="0 0 21 24" enable-background="new 0 0 21 24" xml:space="preserve">
<g>
	<path fill-rule="evenodd" clip-rule="evenodd" fill="#FFFFFF" d="M14.359,19.102L14.359,19.102c0,0.951-0.955,1.394-1.398,1.394
		c-9.814,0-9.814,0-9.814,0c-0.951,0-1.426-0.442-1.426-1.394c0-9.813,0-9.813,0-9.813c0-0.447,0.475-1.399,1.426-1.399
		c0.922,0,0.922,0,0.922,0c0-0.922,0-0.922,0-0.922c-0.922,0-0.922,0-0.922,0c-1.426,0-2.824,0.922-2.824,2.321
		c0,9.813,0,9.813,0,9.813c0,1.394,1.398,2.825,2.824,2.825c9.814,0,9.814,0,9.814,0c1.398,0,2.32-1.432,2.32-2.825
		c0-0.922,0-0.922,0-0.922c-0.922,0-0.922,0-0.922,0V19.102L14.359,19.102L14.359,19.102z M18.107,1.824L18.107,1.824
		c-10.292,0-10.292,0-10.292,0c-1.396,0-2.35,0.922-2.35,2.316c0,10.291,0,10.291,0,10.291c0,1.397,0.953,2.354,2.35,2.354
		c10.292,0,10.292,0,10.292,0c1.396,0,2.318-0.956,2.318-2.354c0-10.291,0-10.291,0-10.291C20.426,2.746,19.504,1.824,18.107,1.824
		L18.107,1.824z M19.027,14.432L19.027,14.432c0,0.475-0.479,0.921-0.92,0.921c-10.292,0-10.292,0-10.292,0
		c-0.474,0-0.92-0.446-0.92-0.921c0-10.291,0-10.291,0-10.291c0-0.475,0.446-0.917,0.92-0.917c10.292,0,10.292,0,10.292,0
		c0.441,0,0.92,0.442,0.92,0.917V14.432L19.027,14.432L19.027,14.432z"/>
</g>
</svg>
