<?xml version="1.0" encoding="utf-8"?>
<!-- Generator: Adobe Illustrator 15.0.0, SVG Export Plug-In  -->
<!DOCTYPE svg PUBLIC "-//W3C//DTD SVG 1.1//EN" "http://www.w3.org/Graphics/SVG/1.1/DTD/svg11.dtd" [
	<!ENTITY ns_flows "http://ns.adobe.com/Flows/1.0/">
]>
<svg version="1.1"
	 xmlns="http://www.w3.org/2000/svg" xmlns:xlink="http://www.w3.org/1999/xlink" xmlns:a="http://ns.adobe.com/AdobeSVGViewerExtensions/3.0/"
	 x="0px" y="0px" width="26px" height="26px" viewBox="-0.072 -0.739 26 26" enable-background="new -0.072 -0.739 26 26"
	 xml:space="preserve">
<defs>
</defs>
<path fill-rule="evenodd" clip-rule="evenodd" fill="#FFFFFF" d="M22.154,8.009L22.154,8.009c-2.762-7.35-2.762-7.35-2.762-7.35
	c0-0.465-0.939-0.932-1.357-0.465C0.47,6.663,0.47,6.663,0.47,6.663C0,6.663,0,7.129,0,8.009c2.763,7.353,2.763,7.353,2.763,7.353
	c0-4.142,0-4.142,0-4.142c0-1.811,1.408-3.21,3.231-3.21c4.588,0,4.588,0,4.588,0c5.525-3.674,5.525-3.674,5.525-3.674
	c3.285,3.674,3.285,3.674,3.285,3.674H22.154L22.154,8.009L22.154,8.009z M24.916,10.288L24.916,10.288c-18.922,0-18.922,0-18.922,0
	c-0.468,0-0.938,0.464-0.938,0.932c0,12.421,0,12.421,0,12.421c0,0.417,0.471,0.881,0.938,0.881c18.922,0,18.922,0,18.922,0
	c0.471,0,0.939-0.464,0.939-0.881c0-12.421,0-12.421,0-12.421C25.855,10.751,25.387,10.288,24.916,10.288L24.916,10.288z
	 M23.563,21.779L23.563,21.779c-15.742,0-15.742,0-15.742,0c0-1.813,0-1.813,0-1.813c2.347-6.004,2.347-6.004,2.347-6.004
	c3.647,4.607,3.647,4.607,3.647,4.607c3.285-3.209,3.285-3.209,3.285-3.209c4.584-1.865,4.584-1.865,4.584-1.865
	c1.879,4.193,1.879,4.193,1.879,4.193V21.779L23.563,21.779L23.563,21.779z"/>
</svg>
