<?xml version="1.0" encoding="utf-8"?>
<!-- Generator: Adobe Illustrator 15.0.0, SVG Export Plug-In . SVG Version: 6.00 Build 0)  -->
<!DOCTYPE svg PUBLIC "-//W3C//DTD SVG 1.1//EN" "http://www.w3.org/Graphics/SVG/1.1/DTD/svg11.dtd">
<svg version="1.1" id="Layer_1" xmlns="http://www.w3.org/2000/svg" xmlns:xlink="http://www.w3.org/1999/xlink" x="0px" y="0px"
	 width="112px" height="112px" viewBox="0 0 112 112" enable-background="new 0 0 112 112" xml:space="preserve">
<g display="none">
	<path display="inline" fill-rule="evenodd" clip-rule="evenodd" fill="#FFFFFF" d="M72.361,36.806L72.361,36.806
		c0-3.826-2.482-6.438-6.258-6.438c-20.213,0-20.213,0-20.213,0c-3.771,0-6.255,2.611-6.255,6.438c-11.396,0-10.106,0-10.106,7.662
		c0,5.135,3.77,10.268,10.106,10.268c0,0,0,0,1.198,0c1.286,6.357,7.624,12.797,13.878,12.797c0,10.27,0,10.27,0,10.27
		c-5.051,0-5.051,0-5.051,0c-1.203,0-2.484,1.307-2.484,2.525c0,0,1.281,1.305,2.484,1.305c12.592,0,12.592,0,12.592,0
		c1.372,0,2.567-1.305,2.567-1.305c0-1.219-1.195-2.525-2.567-2.525c-4.968,0-4.968,0-4.968,0c0-10.27,0-10.27,0-10.27
		c6.34,0,12.594-6.439,13.877-12.797c1.199,0,1.199,0,1.199,0c6.338,0,10.109-5.133,10.109-10.268
		C82.471,36.806,83.758,36.806,72.361,36.806L72.361,36.806z M39.636,50.907L39.636,50.907c-3.854,0-7.624-2.609-7.624-6.439
		s0-3.83,7.624-3.83V50.907L39.636,50.907L39.636,50.907z M69.879,46.989L69.879,46.989c0,7.746-6.254,18.02-13.88,18.02
		c-7.541,0-13.879-10.273-13.879-18.02c0-10.184,0-10.184,0-10.184c0-1.305,2.569-2.609,3.771-2.609c20.213,0,20.213,0,20.213,0
		c1.202,0,3.775,1.305,3.775,2.609V46.989L69.879,46.989L69.879,46.989z M72.361,50.907L72.361,50.907c0-10.27,0-10.27,0-10.27
		c7.625,0,7.625,0,7.625,3.83S76.217,50.907,72.361,50.907L72.361,50.907z"/>
</g>
<path display="none" fill-rule="evenodd" clip-rule="evenodd" fill="#FFFFFF" d="M84.66,83.05L84.66,83.05
	c-57.425,0-57.425,0-57.425,0c-1.48,0-2.96-0.74-2.96-2.977c0-48.143,0-48.143,0-48.143c0-1.49,1.479-2.98,2.96-2.98
	c1.473,0,2.953,1.49,2.953,2.98c0,38.365,0,38.365,0,38.365c0,6.705,0,6.705,0,6.705c54.472,0,54.472,0,54.472,0
	c2.32,0,3.064,1.586,3.064,3.072C87.725,82.31,86.98,83.05,84.66,83.05L84.66,83.05z M78.01,74.017L78.01,74.017
	c-6.018,0-6.018,0-6.018,0c-1.479,0-2.953-0.746-2.953-2.975c0-21.039,0-21.039,0-21.039c0-1.492,1.475-2.98,2.953-2.98
	c6.018,0,6.018,0,6.018,0c1.477,0,2.957,1.488,2.957,2.98c0,21.039,0,21.039,0,21.039C80.967,73.271,79.486,74.017,78.01,74.017
	L78.01,74.017z M60.805,74.017L60.805,74.017c-5.917,0-5.917,0-5.917,0c-1.475,0-3.057-0.746-3.057-2.975
	c0-33.063,0-33.063,0-33.063c0-1.48,1.582-2.971,3.057-2.971c5.917,0,5.917,0,5.917,0c2.215,0,2.953,1.49,2.953,2.971
	c0,33.063,0,33.063,0,33.063C63.758,73.271,63.02,74.017,60.805,74.017L60.805,74.017z M44.442,74.017L44.442,74.017
	c-6.02,0-6.02,0-6.02,0c-2.219,0-2.957-0.746-2.957-2.975c0-6.063,0-6.063,0-6.063c0-1.486,0.738-2.975,2.957-2.975
	c6.02,0,6.02,0,6.02,0c1.473,0,2.953,1.488,2.953,2.975c0,6.063,0,6.063,0,6.063C47.396,73.271,45.915,74.017,44.442,74.017
	L44.442,74.017z"/>
<g>
	<path fill-rule="evenodd" clip-rule="evenodd" fill="#FFFFFF" d="M79.398,39.124L79.398,39.124c-12.369,0-12.369,0-12.369,0
		c0-1.189,0-2.463,0-3.736c0-3.732-2.422-6.275-6.102-6.275c-2.421,0-3.674,1.273-4.93,2.543c-1.252-1.27-2.42-2.543-4.93-2.543
		c-3.679,0-6.099,2.543-6.099,6.275c0,1.273,0,2.547,0,3.736c-12.368,0-12.368,0-12.368,0c-1.169,0-2.424,1.271-2.424,3.813
		c0,2.461,0,2.461,0,2.461c0,2.457,1.255,3.73,2.424,3.73c0,26.211,0,26.211,0,26.211c0,3.732,3.677,7.549,7.439,7.549
		c31.92,0,31.92,0,31.92,0c3.677,0,7.438-3.816,7.438-7.549c0-26.211,0-26.211,0-26.211c1.169,0,2.424-1.273,2.424-3.73
		c0-2.461,0-2.461,0-2.461C81.822,40.396,80.567,39.124,79.398,39.124L79.398,39.124z M60.928,32.929L60.928,32.929
		c1.173,0,3.68,1.188,3.68,2.459c0,2.547-2.507,3.736-3.68,3.736c-1.251,0-3.674-1.189-3.674-3.736
		C57.254,34.116,59.677,32.929,60.928,32.929L60.928,32.929z M51.068,32.929L51.068,32.929c1.254,0,3.678,1.188,3.678,2.459
		c0,2.547-2.424,3.736-3.678,3.736s-3.679-1.189-3.679-3.736C47.39,34.116,49.814,32.929,51.068,32.929L51.068,32.929z
		 M54.746,79.071L54.746,79.071c-14.705,0-14.705,0-14.705,0c-2.51,0-3.763-1.189-3.763-3.732c0-10.006,0-10.006,0-10.006
		c18.468,0,18.468,0,18.468,0V79.071L54.746,79.071L54.746,79.071z M54.746,62.87L54.746,62.87c-18.468,0-18.468,0-18.468,0
		c0-13.742,0-13.742,0-13.742c18.468,0,18.468,0,18.468,0V62.87L54.746,62.87L54.746,62.87z M75.638,75.339L75.638,75.339
		c0,2.543-1.167,3.732-3.677,3.732c-14.707,0-14.707,0-14.707,0c0-13.738,0-13.738,0-13.738c18.384,0,18.384,0,18.384,0V75.339
		L75.638,75.339L75.638,75.339z M75.638,62.87L75.638,62.87c-18.384,0-18.384,0-18.384,0c0-13.742,0-13.742,0-13.742
		c18.384,0,18.384,0,18.384,0V62.87L75.638,62.87L75.638,62.87z M76.893,45.397L76.893,45.397c-41.785,0-41.785,0-41.785,0
		c-1.254,0-2.506,0-2.506-1.268c0-1.193,1.252-1.193,2.506-1.193c41.785,0,41.785,0,41.785,0c1.252,0,2.506,0,2.506,1.193
		C79.398,45.397,78.145,45.397,76.893,45.397L76.893,45.397z"/>
</g>
</svg>
