<?xml version="1.0" encoding="utf-8"?>
<!-- Generator: Adobe Illustrator 15.0.0, SVG Export Plug-In . SVG Version: 6.00 Build 0)  -->
<!DOCTYPE svg PUBLIC "-//W3C//DTD SVG 1.1//EN" "http://www.w3.org/Graphics/SVG/1.1/DTD/svg11.dtd">
<svg version="1.1" id="Layer_1" xmlns="http://www.w3.org/2000/svg" xmlns:xlink="http://www.w3.org/1999/xlink" x="0px" y="0px"
	 width="29px" height="29px" viewBox="0 0 29 29" enable-background="new 0 0 29 29" xml:space="preserve">
<g>
	<path fill="#F48120" d="M14.502,28.759c-7.863,0-14.26-6.396-14.26-14.258c0-7.863,6.397-14.26,14.26-14.26
		c7.86,0,14.256,6.396,14.256,14.26C28.758,22.362,22.362,28.759,14.502,28.759z M14.502,0.741c-7.587,0-13.76,6.173-13.76,13.76
		c0,7.586,6.172,13.758,13.76,13.758c7.585,0,13.756-6.172,13.756-13.758C28.258,6.914,22.087,0.741,14.502,0.741z"/>
	<path fill="#F48120" d="M26.836,14.501c0,6.811-5.521,12.332-12.334,12.332c-6.814,0-12.338-5.521-12.338-12.332
		c0-6.813,5.523-12.34,12.338-12.34C21.314,2.161,26.836,7.688,26.836,14.501z"/>
	<g>
		<path fill="#FFFFFF" d="M5.985,17.198v-6.191h0.882l1.975,3.133c0.45,0.726,0.818,1.378,1.103,2.012l0.027-0.01
			c-0.073-0.826-0.092-1.58-0.092-2.544v-2.591h0.753v6.191H9.824l-1.965-3.142C7.427,13.368,7.014,12.66,6.71,11.99l-0.027,0.009
			c0.046,0.781,0.055,1.524,0.055,2.554v2.646H5.985z"/>
		<path fill="#FFFFFF" d="M15.229,14.296h-2.397v2.231h2.683v0.671h-3.491v-6.191h3.352v0.671h-2.544v1.956h2.397V14.296z"/>
		<path fill="#FFFFFF" d="M17.647,17.198l-1.571-6.191h0.845l0.735,3.133c0.184,0.771,0.349,1.543,0.46,2.14h0.018
			c0.102-0.615,0.294-1.35,0.506-2.149l0.826-3.123h0.836l0.754,3.142c0.174,0.735,0.34,1.47,0.432,2.122h0.018
			c0.129-0.68,0.303-1.369,0.496-2.141l0.818-3.123h0.816l-1.754,6.191h-0.836l-0.781-3.225c-0.192-0.79-0.321-1.396-0.404-2.021
			h-0.018c-0.102,0.615-0.248,1.222-0.479,2.021l-0.881,3.225H17.647z"/>
	</g>
</g>
</svg>
