<?xml version="1.0" encoding="utf-8"?>
<!-- Generator: Adobe Illustrator 15.0.0, SVG Export Plug-In . SVG Version: 6.00 Build 0)  -->
<!DOCTYPE svg PUBLIC "-//W3C//DTD SVG 1.1//EN" "http://www.w3.org/Graphics/SVG/1.1/DTD/svg11.dtd">
<svg version="1.1" id="Layer_1" xmlns="http://www.w3.org/2000/svg" xmlns:xlink="http://www.w3.org/1999/xlink" x="0px" y="0px"
	 width="54px" height="34px" viewBox="0 0 54 34" enable-background="new 0 0 54 34" xml:space="preserve">
<g>
	<g>
		<path fill-rule="evenodd" clip-rule="evenodd" fill="#FFFFFF" d="M30.141,3.239L30.141,3.239
			c-2.964-2.944-5.251-2.944-5.251-2.944C14.476,11.486,14.476,11.486,14.476,11.486C2.364,23.434,2.364,23.434,2.364,23.434
			c-2.2,9.676-2.2,9.676-2.2,9.676c9.823-2.271,9.823-2.271,9.823-2.271c12.7-11.859,12.7-11.859,12.7-11.859
			C33.189,8.458,33.189,8.458,33.189,8.458S33.189,6.268,30.141,3.239L30.141,3.239z M9.987,30.08L9.987,30.08
			c-3.812,0.758-3.812,0.758-3.812,0.758c0-0.758-0.679-1.428-1.439-2.189c-0.849-0.756-1.612-0.756-1.612-1.516
			c0.764-2.943,0.764-2.943,0.764-2.943c0.849-1.512,0.849-1.512,0.849-1.512s1.439,0,3.726,2.184
			c2.202,2.271,2.202,3.787,2.202,3.787L9.987,30.08L9.987,30.08L9.987,30.08z"/>
	</g>
	<g>
		<path fill="#FFFFFF" d="M27.138,33.705v-9.691h2.001v9.691H27.138z M30.168,33.705v-9.691h1.994v9.691H30.168z"/>
		<path fill="#FFFFFF" d="M37.033,23.898c0.43,0,0.85,0.061,1.26,0.184c0.408,0.123,0.771,0.301,1.09,0.537
			c0.318,0.234,0.574,0.525,0.768,0.871s0.289,0.742,0.289,1.191v7.023h-1.994v-6.844c0-0.395-0.117-0.705-0.354-0.936
			c-0.234-0.23-0.588-0.346-1.059-0.346c-0.361,0-0.684,0.059-0.963,0.172c-0.279,0.115-0.496,0.254-0.654,0.414
			c0.092,0.104,0.166,0.225,0.225,0.365s0.088,0.318,0.088,0.533v6.641h-1.994v-6.328c0-0.092-0.012-0.186-0.033-0.281
			c-0.021-0.098-0.057-0.189-0.105-0.277C33.545,26.73,33.48,26.65,33.4,26.58s-0.18-0.127-0.297-0.168
			c0.213-0.426,0.459-0.797,0.74-1.111s0.59-0.574,0.924-0.783s0.691-0.363,1.07-0.467C36.219,23.949,36.615,23.898,37.033,23.898z"
			/>
		<path fill="#FFFFFF" d="M36.605,22.775v-1.414h-0.789v-1.391h2.428v1.391c0.201-0.021,0.369-0.07,0.506-0.145
			s0.248-0.172,0.332-0.293s0.145-0.262,0.18-0.422c0.037-0.16,0.055-0.338,0.055-0.531h1.863c0,0.357-0.064,0.705-0.193,1.043
			c-0.131,0.338-0.328,0.637-0.592,0.898c-0.266,0.262-0.6,0.471-1,0.627c-0.402,0.158-0.875,0.236-1.42,0.236H36.605z"/>
		<path fill="#FFFFFF" d="M45.76,32.111h1.051v1.594H43.76V22.891c0-0.328,0.059-0.623,0.176-0.885s0.283-0.482,0.498-0.666h-3.139
			l0.805-1.572h4.711l0.428,1.572c-0.207,0-0.4,0.043-0.58,0.129s-0.336,0.203-0.469,0.354s-0.238,0.324-0.314,0.523
			s-0.115,0.41-0.115,0.633V32.111z"/>
		<path fill="#FFFFFF" d="M51.814,33.705h-2.088l-1.703-8.01h-1.053v-1.682h2.805l0.807,4.016l0.18,1.5l0.182-1.479l0.826-4.037
			h2.066L51.814,33.705z"/>
	</g>
</g>
</svg>
