<?xml version="1.0" encoding="utf-8"?>
<!-- Generator: Adobe Illustrator 15.0.0, SVG Export Plug-In . SVG Version: 6.00 Build 0)  -->
<!DOCTYPE svg PUBLIC "-//W3C//DTD SVG 1.1//EN" "http://www.w3.org/Graphics/SVG/1.1/DTD/svg11.dtd">
<svg version="1.1" id="Layer_1" xmlns="http://www.w3.org/2000/svg" xmlns:xlink="http://www.w3.org/1999/xlink" x="0px" y="0px"
	 width="26px" height="26px" viewBox="0 0 26 26" enable-background="new 0 0 26 26" xml:space="preserve">
<g>
	<path fill-rule="evenodd" clip-rule="evenodd" fill="#FFFFFF" d="M22.227,8.748L22.227,8.748c-2.762-7.35-2.762-7.35-2.762-7.35
		c0-0.465-0.939-0.932-1.357-0.465C0.542,7.402,0.542,7.402,0.542,7.402c-0.47,0-0.47,0.466-0.47,1.346
		c2.763,7.353,2.763,7.353,2.763,7.353c0-4.142,0-4.142,0-4.142c0-1.811,1.408-3.21,3.231-3.21c4.588,0,4.588,0,4.588,0
		c5.525-3.674,5.525-3.674,5.525-3.674c3.285,3.674,3.285,3.674,3.285,3.674H22.227L22.227,8.748L22.227,8.748z M24.988,11.027
		L24.988,11.027c-18.922,0-18.922,0-18.922,0c-0.468,0-0.938,0.464-0.938,0.932c0,12.421,0,12.421,0,12.421
		c0,0.417,0.471,0.881,0.938,0.881c18.922,0,18.922,0,18.922,0c0.471,0,0.939-0.464,0.939-0.881c0-12.421,0-12.421,0-12.421
		C25.928,11.491,25.459,11.027,24.988,11.027L24.988,11.027z M23.635,22.519L23.635,22.519c-15.742,0-15.742,0-15.742,0
		c0-1.813,0-1.813,0-1.813c2.347-6.004,2.347-6.004,2.347-6.004c3.647,4.607,3.647,4.607,3.647,4.607
		c3.285-3.209,3.285-3.209,3.285-3.209c4.584-1.865,4.584-1.865,4.584-1.865c1.879,4.193,1.879,4.193,1.879,4.193V22.519
		L23.635,22.519L23.635,22.519z"/>
</g>
<g display="none">
	<path display="inline" fill-rule="evenodd" clip-rule="evenodd" fill="#FFFFFF" d="M22.929,4.545L22.929,4.545
		c-2.482,0-2.482,0-2.482,0c-0.632-1.874-0.632-1.874-0.632-1.874c-0.631-0.639-1.262-1.276-1.852-1.276c-9.928,0-9.928,0-9.928,0
		c-0.589,0-1.221,0.638-1.853,1.276c-0.63,1.874-0.63,1.874-0.63,1.874c-2.481,0-2.481,0-2.481,0C1.221,4.545,0,5.824,0,7.654
		c0,13.844,0,13.844,0,13.844c0,1.873,1.221,3.107,3.071,3.107c19.857,0,19.857,0,19.857,0c1.85,0,3.071-1.234,3.071-3.107
		c0-13.844,0-13.844,0-13.844C26,5.824,24.778,4.545,22.929,4.545L22.929,4.545z M24.778,21.498L24.778,21.498
		c0,0.596-1.262,1.234-1.85,1.234c-19.857,0-19.857,0-19.857,0c-0.59,0-1.851-0.639-1.851-1.234c0-13.844,0-13.844,0-13.844
		c0-0.597,1.261-1.235,1.851-1.235c3.111,0,3.111,0,3.111,0c1.264-1.874,1.264-1.874,1.264-1.874
		c0.589-1.235,0.589-1.874,1.22-1.874c8.666,0,8.666,0,8.666,0c0.631,0,0.631,0.639,1.221,1.874
		c1.262,1.874,1.262,1.874,1.262,1.874c3.114,0,3.114,0,3.114,0c0.588,0,1.85,0.639,1.85,1.235V21.498L24.778,21.498L24.778,21.498z
		 M13,7.654L13,7.654c-3.703,0-6.817,3.152-6.817,6.943c0,3.746,3.114,6.9,6.817,6.9c3.743,0,6.814-3.154,6.814-6.9
		C19.814,10.807,16.743,7.654,13,7.654L13,7.654z M13,19.58L13,19.58c-2.482,0-4.965-2.512-4.965-4.982
		c0-2.514,2.482-5.026,4.965-5.026c2.479,0,4.963,2.513,4.963,5.026C17.963,17.068,15.479,19.58,13,19.58L13,19.58z"/>
</g>
</svg>
