<?xml version="1.0" encoding="utf-8"?>
<!-- Generator: Adobe Illustrator 15.0.0, SVG Export Plug-In  -->
<!DOCTYPE svg PUBLIC "-//W3C//DTD SVG 1.1//EN" "http://www.w3.org/Graphics/SVG/1.1/DTD/svg11.dtd" [
	<!ENTITY ns_flows "http://ns.adobe.com/Flows/1.0/">
]>
<svg version="1.1"
	 xmlns="http://www.w3.org/2000/svg" xmlns:xlink="http://www.w3.org/1999/xlink" xmlns:a="http://ns.adobe.com/AdobeSVGViewerExtensions/3.0/"
	 x="0px" y="0px" width="112px" height="112px" viewBox="-24.275 -28.95 112 112" enable-background="new -24.275 -28.95 112 112"
	 xml:space="preserve">
<defs>
</defs>
<path display="none" fill-rule="evenodd" clip-rule="evenodd" fill="#FFFFFF" d="M48.086,7.855L48.086,7.855
	c0-3.826-2.482-6.438-6.258-6.438c-20.213,0-20.213,0-20.213,0c-3.771,0-6.255,2.611-6.255,6.438c-11.396,0-10.106,0-10.106,7.662
	c0,5.135,3.77,10.268,10.106,10.268c0,0,0,0,1.198,0c1.286,6.357,7.624,12.797,13.878,12.797c0,10.27,0,10.27,0,10.27
	c-5.051,0-5.051,0-5.051,0c-1.203,0-2.484,1.307-2.484,2.525c0,0,1.281,1.305,2.484,1.305c12.592,0,12.592,0,12.592,0
	c1.372,0,2.567-1.305,2.567-1.305c0-1.219-1.195-2.525-2.567-2.525c-4.968,0-4.968,0-4.968,0c0-10.27,0-10.27,0-10.27
	c6.34,0,12.594-6.439,13.877-12.797c1.199,0,1.199,0,1.199,0c6.338,0,10.109-5.133,10.109-10.268
	C58.195,7.855,59.482,7.855,48.086,7.855L48.086,7.855z M15.36,21.957L15.36,21.957c-3.854,0-7.624-2.609-7.624-6.439
	s0-3.83,7.624-3.83V21.957L15.36,21.957L15.36,21.957z M45.604,18.039L45.604,18.039c0,7.746-6.254,18.02-13.88,18.02
	c-7.541,0-13.879-10.273-13.879-18.02c0-10.184,0-10.184,0-10.184c0-1.305,2.569-2.609,3.771-2.609c20.213,0,20.213,0,20.213,0
	c1.202,0,3.775,1.305,3.775,2.609V18.039L45.604,18.039L45.604,18.039z M48.086,21.957L48.086,21.957c0-10.27,0-10.27,0-10.27
	c7.625,0,7.625,0,7.625,3.83S51.941,21.957,48.086,21.957L48.086,21.957z"/>
<path fill-rule="evenodd" clip-rule="evenodd" fill="#FFFFFF" d="M60.385,54.1L60.385,54.1c-57.425,0-57.425,0-57.425,0
	c-1.48,0-2.96-0.74-2.96-2.977C0,2.98,0,2.98,0,2.98C0,1.49,1.479,0,2.96,0c1.473,0,2.953,1.49,2.953,2.98
	c0,38.365,0,38.365,0,38.365c0,6.705,0,6.705,0,6.705c54.472,0,54.472,0,54.472,0c2.32,0,3.064,1.586,3.064,3.072
	C63.449,53.359,62.705,54.1,60.385,54.1L60.385,54.1z M53.734,45.066L53.734,45.066c-6.018,0-6.018,0-6.018,0
	c-1.479,0-2.953-0.746-2.953-2.975c0-21.039,0-21.039,0-21.039c0-1.492,1.475-2.98,2.953-2.98c6.018,0,6.018,0,6.018,0
	c1.477,0,2.957,1.488,2.957,2.98c0,21.039,0,21.039,0,21.039C56.691,44.32,55.211,45.066,53.734,45.066L53.734,45.066z
	 M36.529,45.066L36.529,45.066c-5.917,0-5.917,0-5.917,0c-1.475,0-3.057-0.746-3.057-2.975c0-33.063,0-33.063,0-33.063
	c0-1.48,1.582-2.971,3.057-2.971c5.917,0,5.917,0,5.917,0c2.215,0,2.953,1.49,2.953,2.971c0,33.063,0,33.063,0,33.063
	C39.482,44.32,38.744,45.066,36.529,45.066L36.529,45.066z M20.167,45.066L20.167,45.066c-6.02,0-6.02,0-6.02,0
	c-2.219,0-2.957-0.746-2.957-2.975c0-6.063,0-6.063,0-6.063c0-1.486,0.738-2.975,2.957-2.975c6.02,0,6.02,0,6.02,0
	c1.473,0,2.953,1.488,2.953,2.975c0,6.063,0,6.063,0,6.063C23.12,44.32,21.64,45.066,20.167,45.066L20.167,45.066z"/>
</svg>
