<?xml version="1.0" encoding="utf-8"?>
<!-- Generator: Adobe Illustrator 15.0.0, SVG Export Plug-In  -->
<!DOCTYPE svg PUBLIC "-//W3C//DTD SVG 1.1//EN" "http://www.w3.org/Graphics/SVG/1.1/DTD/svg11.dtd" [
	<!ENTITY ns_flows "http://ns.adobe.com/Flows/1.0/">
]>
<svg version="1.1"
	 xmlns="http://www.w3.org/2000/svg" xmlns:xlink="http://www.w3.org/1999/xlink" xmlns:a="http://ns.adobe.com/AdobeSVGViewerExtensions/3.0/"
	 x="0px" y="0px" width="38px" height="38px" viewBox="0 0 38 38" enable-background="new 0 0 38 38" xml:space="preserve">
<defs>
</defs>
<rect display="none" width="38" height="38"/>
<path id="reward_1_" transform="matrix(0.018 0 0 0.018 3.2163 0)" display="none" fill-rule="evenodd" clip-rule="evenodd" fill="#FFFFFF" d="
	M28.661,11.535L28.661,11.535c0-2.258-1.469-3.8-3.693-3.8c-11.935,0-11.935,0-11.935,0c-2.226,0-3.69,1.542-3.69,3.8
	c-6.726,0-5.97,0-5.97,4.524c0,3.032,2.226,6.062,5.97,6.062c0,0,0,0,0.709,0c0.755,3.752,4.497,7.551,8.189,7.551
	c0,6.066,0,6.066,0,6.066c-2.98,0-2.98,0-2.98,0c-0.712,0-1.469,0.771-1.469,1.49c0,0,0.757,0.771,1.469,0.771
	c7.434,0,7.434,0,7.434,0c0.81,0,1.513-0.771,1.513-0.771c0-0.72-0.703-1.49-1.513-1.49c-2.936,0-2.936,0-2.936,0
	c0-6.066,0-6.066,0-6.066c3.746,0,7.434-3.799,8.196-7.551c0.707,0,0.707,0,0.707,0c3.742,0,5.965-3.029,5.965-6.062
	C34.626,11.535,35.388,11.535,28.661,11.535L28.661,11.535z M9.343,19.862L9.343,19.862c-2.277,0-4.504-1.542-4.504-3.802
	c0-2.263,0-2.263,4.504-2.263V19.862L9.343,19.862L9.343,19.862z M27.192,17.549L27.192,17.549c0,4.572-3.688,10.637-8.191,10.637
	c-4.453,0-8.194-6.064-8.194-10.637c0-6.014,0-6.014,0-6.014c0-0.767,1.521-1.538,2.226-1.538c11.935,0,11.935,0,11.935,0
	c0.709,0,2.225,0.771,2.225,1.538V17.549L27.192,17.549L27.192,17.549z M28.661,19.862L28.661,19.862c0-6.065,0-6.065,0-6.065
	c4.5,0,4.5,0,4.5,2.263C33.161,18.32,30.934,19.862,28.661,19.862L28.661,19.862z"/>
<path id="profile_1_" display="none" fill-rule="evenodd" clip-rule="evenodd" fill="#FFFFFF" d="M27.926,30.842L27.926,30.842
	c-4.16-1.752-5.301-2.966-5.301-5.936c0-1.215,1.141-0.609,1.746-3.578c0-1.281,1.205,0,1.205-2.967
	c0-1.284-0.605-1.284-0.605-1.284s0.605-1.756,0.605-2.966c0-1.826-0.605-5.94-6.577-5.94c-5.974,0-6.579,4.114-6.579,5.94
	c0,1.21,0.605,2.966,0.605,2.966s-0.605,0-0.605,1.284c0,2.967,1.211,1.686,1.211,2.967c0.602,2.969,1.813,2.363,1.813,3.578
	c0,2.97-1.211,4.184-5.374,5.936c-4.161,1.219-6.507,2.971-6.507,4.188c0,0.605,0,2.971,0,2.971c15.437,0,15.437,0,15.437,0
	c15.438,0,15.438,0,15.438,0s0-2.365,0-2.971C34.438,33.813,32.088,32.061,27.926,30.842"/>
<path display="none" fill-rule="evenodd" clip-rule="evenodd" fill="#FFFFFF" d="M24.843,33.857L24.843,33.857
	c0,1.398-1.396,2.049-2.051,2.049c-14.385,0-14.385,0-14.385,0c-1.396,0-2.094-0.65-2.094-2.049c0-14.385,0-14.385,0-14.385
	c0-0.648,0.697-2.047,2.094-2.047c1.352,0,1.352,0,1.352,0c0-1.35,0-1.35,0-1.35c-1.352,0-1.352,0-1.352,0
	c-2.094,0-4.141,1.35-4.141,3.397c0,14.385,0,14.385,0,14.385C4.267,35.906,6.313,38,8.407,38c14.385,0,14.385,0,14.385,0
	c2.051,0,3.4-2.094,3.4-4.143c0-1.35,0-1.35,0-1.35c-1.35,0-1.35,0-1.35,0V33.857L24.843,33.857L24.843,33.857z M30.335,8.534
	L30.335,8.534c-15.082,0-15.082,0-15.082,0c-2.049,0-3.445,1.35-3.445,3.397c0,15.082,0,15.082,0,15.082
	c0,2.051,1.396,3.446,3.445,3.446c15.082,0,15.082,0,15.082,0c2.049,0,3.398-1.396,3.398-3.446c0-15.082,0-15.082,0-15.082
	C33.733,9.884,32.384,8.534,30.335,8.534L30.335,8.534z M31.686,27.014L31.686,27.014c0,0.701-0.697,1.352-1.351,1.352
	c-15.082,0-15.082,0-15.082,0c-0.699,0-1.352-0.65-1.352-1.352c0-15.082,0-15.082,0-15.082c0-0.697,0.652-1.35,1.352-1.35
	c15.082,0,15.082,0,15.082,0c0.653,0,1.351,0.653,1.351,1.35V27.014L31.686,27.014L31.686,27.014z"/>
<path display="none" fill-rule="evenodd" clip-rule="evenodd" fill="#FFFFFF" d="M36.326,22.664L36.326,22.664
	C20.33,7.253,20.33,7.253,20.33,7.253c-0.706-1.335-2.038-1.335-2.745,0C1.673,22.664,1.673,22.664,1.673,22.664
	c-0.707,0.631,0,1.34,0.702,1.34c3.451,0,3.451,0,3.451,0c0,12.58,0,12.58,0,12.58c0,0.707,0,1.416,1.333,1.416
	c7.684,0,7.684,0,7.684,0c0-12.584,0-12.584,0-12.584c8.31,0,8.31,0,8.31,0c0,12.584,0,12.584,0,12.584c7.684,0,7.684,0,7.684,0
	c1.33,0,1.33-0.709,1.33-1.416c0-12.58,0-12.58,0-12.58c3.533,0,3.533,0,3.533,0C36.326,24.004,37.031,23.295,36.326,22.664"/>
<path fill-rule="evenodd" clip-rule="evenodd" fill="#FFFFFF" d="M7.357,17.561L7.357,17.561c1.174-1.188,2.486-0.56,4.283,1.254
	c0.623,0.627,0.623,0,0.623,0c0.62,0,2.418-2.442,3.039-2.442c0,0,0,0,0-0.627c-0.621,0-1.174-0.627-1.174-1.255
	c-3.111-4.327,8.5-6.766,6.704-6.766c-1.245-0.698-4.905-0.698-5.53-0.698c-1.797,0.698-4.836,2.509-6.082,3.764
	c-1.863,1.258-2.418,1.885-2.418,1.885c-0.69,0.557,0,1.814-1.311,2.443c-1.177,0.627-1.797,0-2.42,0.627
	c0,0.627-0.623,0.627-1.245,1.255v0.56l2.488,2.508c0,0.632,0.554,0.632,1.177,0.632c0-0.632,0.62-1.258,1.311-1.258
	C6.802,19.442,6.802,17.561,7.357,17.561L7.357,17.561z M17.169,18.188L17.169,18.188c-0.621,0-0.621,0-0.621,0
	c-2.42,1.88-2.42,1.88-2.42,1.88c-0.623,0.632-0.623,0.632-0.623,1.188c14.651,16.114,14.651,16.114,14.651,16.114
	c0,0.629,0.691,0.629,1.244,0c1.865-1.254,1.865-1.254,1.865-1.254c0-0.626,0-1.188,0-1.188L17.169,18.188L17.169,18.188
	L17.169,18.188z M36.174,11.421L36.174,11.421c-0.623-1.258-0.623-0.631-1.246-0.631c0,0.631-1.242,1.885-1.242,2.442
	c-0.623,1.257-1.797,2.513-3.662,1.257c-1.867-1.814-1.176-2.441-0.623-3.069c0-0.631,1.244-2.442,1.244-3.069
	c0.621,0,0-0.627-0.621-0.627c-0.623,0.627-4.285,1.811-4.906,4.324c-0.623,1.815,0.621,3.697-1.246,5.512
	c-2.416,2.508-2.416,2.508-2.416,2.508c2.416,3.07,2.416,3.07,2.416,3.07c3.113-3.07,3.113-3.07,3.113-3.07
	c0.551-0.626,1.863-1.253,3.039-0.626c3.039,0.626,4.285-0.627,5.527-2.441C36.174,15.119,36.174,12.049,36.174,11.421
	L36.174,11.421z M6.802,34.93L6.802,34.93c-0.69,0.562-0.69,1.188,0,1.188C7.978,38,7.978,38,7.978,38c0.553,0,1.242,0,1.242-0.629
	c8.57-8.023,8.57-8.023,8.57-8.023c-2.488-3.136-2.488-3.136-2.488-3.136L6.802,34.93L6.802,34.93L6.802,34.93z"/>
</svg>
