<?xml version="1.0" encoding="utf-8"?>
<!-- Generator: Adobe Illustrator 15.0.0, SVG Export Plug-In . SVG Version: 6.00 Build 0)  -->
<!DOCTYPE svg PUBLIC "-//W3C//DTD SVG 1.1//EN" "http://www.w3.org/Graphics/SVG/1.1/DTD/svg11.dtd">
<svg version="1.1" id="Layer_1" xmlns="http://www.w3.org/2000/svg" xmlns:xlink="http://www.w3.org/1999/xlink" x="0px" y="0px"
	 width="68px" height="68px" viewBox="0 0 68 68" enable-background="new 0 0 68 68" xml:space="preserve">
<g>
	<path fill="#F48120" d="M33.812,67.7c-18.607,0-33.746-15.139-33.746-33.746c0-18.609,15.139-33.748,33.746-33.748
		s33.746,15.139,33.746,33.748C67.558,52.562,52.419,67.7,33.812,67.7z M33.812,2.206c-17.505,0-31.746,14.242-31.746,31.748
		c0,17.505,14.241,31.746,31.746,31.746s31.746-14.241,31.746-31.746C65.558,16.448,51.316,2.206,33.812,2.206z"/>
	<polygon fill="#F48120" points="30.261,15.077 43.606,15.077 33.726,29.841 46.163,29.841 22.597,52.835 32.251,33.954 
		21.46,33.954 	"/>
</g>
</svg>
