<?xml version="1.0" encoding="utf-8"?>
<!-- Generator: Adobe Illustrator 15.0.0, SVG Export Plug-In . SVG Version: 6.00 Build 0)  -->
<!DOCTYPE svg PUBLIC "-//W3C//DTD SVG 1.1//EN" "http://www.w3.org/Graphics/SVG/1.1/DTD/svg11.dtd">
<svg version="1.1" id="Layer_1" xmlns="http://www.w3.org/2000/svg" xmlns:xlink="http://www.w3.org/1999/xlink" x="0px" y="0px"
	 width="21px" height="24px" viewBox="0 0 21 24" enable-background="new 0 0 21 24" xml:space="preserve">
<g display="none">
	<path display="inline" fill-rule="evenodd" clip-rule="evenodd" fill="#FFFFFF" d="M5.065,13.906L5.065,13.906
		c4.879,4.889,4.879,4.889,4.879,4.889l0.557,0.557l0.554-0.557c4.881-4.889,4.881-4.889,4.881-4.889
		c0.555-0.553,0.555-0.553,0-1.111c0,0-0.555,0-1.072,0c-3.809,3.814-3.809,3.814-3.809,3.814c0-15.812,0-15.812,0-15.812
		s0-0.517-0.554-0.517c-0.557,0-0.557,0.517-0.557,0.517c0,15.812,0,15.812,0,15.812c-3.806-3.814-3.806-3.814-3.806-3.814
		c-0.519,0-1.073,0-1.073,0C4.513,13.354,4.513,13.354,5.065,13.906L5.065,13.906z M17.563,2.984L17.563,2.984
		c-2.182,0-2.182,0-2.182,0c0,1.627,0,1.627,0,1.627c2.182,0,2.182,0,2.182,0c1.107,0,1.664,0.558,1.664,1.668
		c0,14.145,0,14.145,0,14.145c0,1.111-0.557,1.629-1.664,1.629c-14.124,0-14.124,0-14.124,0c-1.107,0-1.664-0.518-1.664-1.629
		c0-14.145,0-14.145,0-14.145c0-1.11,0.557-1.668,1.664-1.668c2.182,0,2.182,0,2.182,0c0-1.627,0-1.627,0-1.627
		c-2.182,0-2.182,0-2.182,0c-1.664,0-3.29,1.627-3.29,3.295c0,14.145,0,14.145,0,14.145c0,1.629,1.626,3.295,3.29,3.295
		c14.124,0,14.124,0,14.124,0c1.664,0,3.289-1.666,3.289-3.295c0-14.145,0-14.145,0-14.145C20.852,4.611,19.227,2.984,17.563,2.984
		L17.563,2.984z"/>
</g>
<g display="none">
	<path display="inline" fill-rule="evenodd" clip-rule="evenodd" fill="#FFFFFF" d="M15.184,18.526L15.184,18.526
		c0,0.951-0.954,1.394-1.398,1.394c-9.813,0-9.813,0-9.813,0c-0.951,0-1.426-0.442-1.426-1.394c0-9.813,0-9.813,0-9.813
		c0-0.447,0.475-1.399,1.426-1.399c0.922,0,0.922,0,0.922,0c0-0.922,0-0.922,0-0.922c-0.922,0-0.922,0-0.922,0
		c-1.426,0-2.824,0.922-2.824,2.321c0,9.813,0,9.813,0,9.813c0,1.394,1.398,2.825,2.824,2.825c9.813,0,9.813,0,9.813,0
		c1.398,0,2.321-1.432,2.321-2.825c0-0.922,0-0.922,0-0.922c-0.923,0-0.923,0-0.923,0V18.526L15.184,18.526L15.184,18.526z"/>
	<path display="inline" fill-rule="evenodd" clip-rule="evenodd" fill="#FFFFFF" d="M19.853,13.856L19.853,13.856
		c0,0.475-0.479,0.921-0.92,0.921c-10.293,0-10.293,0-10.293,0c-0.474,0-0.92-0.446-0.92-0.921c0-10.291,0-10.291,0-10.291
		c0-0.475,0.446-0.917,0.92-0.917c10.293,0,10.293,0,10.293,0c0.441,0,0.92,0.442,0.92,0.917V13.856L19.853,13.856L19.853,13.856z"
		/>
</g>
<g>
	<path fill-rule="evenodd" clip-rule="evenodd" fill="#FFFFFF" d="M2.031,4.961L2.031,4.961c0-0.524,0.261-1.047,1.085-1.047
		c5.272,0,5.272,0,5.272,0c0-1.05,0-1.05,0-1.05c0-0.524,0.261-1.049,1.046-1.049c2.132,0,2.132,0,2.132,0
		c0.521,0,1.046,0.524,1.046,1.049c0,1.05,0,1.05,0,1.05c5.271,0,5.271,0,5.271,0c0.524,0,1.085,0.522,1.085,1.047
		c0,1.086,0,1.086,0,1.086c-16.938,0-16.938,0-16.938,0V4.961L2.031,4.961L2.031,4.961z M17.884,8.144L17.884,8.144
		c0,2.133,0,2.133,0,2.133c0,10.822,0,10.822,0,10.822c0,0.824-0.521,1.086-1.046,1.086c-12.676,0-12.676,0-12.676,0
		c-0.785,0-1.046-0.262-1.046-1.086c0-10.822,0-10.822,0-10.822c0-2.133,0-2.133,0-2.133c0-1.048,0-1.048,0-1.048
		c14.768,0,14.768,0,14.768,0V8.144L17.884,8.144L17.884,8.144z M7.34,10.276L7.34,10.276c0-0.522-0.56-1.085-1.083-1.085
		c-0.785,0-1.048,0.563-1.048,1.085c0,8.726,0,8.726,0,8.726c0,0.785,0.263,1.048,1.048,1.048c0.523,0,1.083-0.263,1.083-1.048
		V10.276L7.34,10.276L7.34,10.276z M11.566,10.276L11.566,10.276c0-0.522-0.522-1.085-1.047-1.085c-0.824,0-1.085,0.563-1.085,1.085
		c0,8.726,0,8.726,0,8.726c0,0.785,0.261,1.048,1.085,1.048c0.524,0,1.047-0.263,1.047-1.048V10.276L11.566,10.276L11.566,10.276z
		 M15.789,10.276L15.789,10.276c0-0.522-0.521-1.085-1.046-1.085c-0.821,0-1.084,0.563-1.084,1.085c0,8.726,0,8.726,0,8.726
		c0,0.785,0.263,1.048,1.084,1.048c0.524,0,1.046-0.263,1.046-1.048V10.276L15.789,10.276L15.789,10.276z"/>
</g>
</svg>
