<?xml version="1.0" encoding="utf-8"?>
<!-- Generator: Adobe Illustrator 15.0.0, SVG Export Plug-In . SVG Version: 6.00 Build 0)  -->
<!DOCTYPE svg PUBLIC "-//W3C//DTD SVG 1.1//EN" "http://www.w3.org/Graphics/SVG/1.1/DTD/svg11.dtd">
<svg version="1.1" id="Layer_1" xmlns="http://www.w3.org/2000/svg" xmlns:xlink="http://www.w3.org/1999/xlink" x="0px" y="0px"
	 width="58px" height="49px" viewBox="0 0 58 49" enable-background="new 0 0 58 49" xml:space="preserve">
<g>
	<path fill="#F48120" d="M47.156,48.706H10.843c-5.958,0-10.806-4.849-10.806-10.808V11.1c0-5.958,4.847-10.806,10.806-10.806
		h36.313c5.959,0,10.807,4.848,10.807,10.806v26.799C57.963,43.857,53.115,48.706,47.156,48.706z M10.843,2.293
		c-4.855,0-8.806,3.95-8.806,8.806v26.799c0,4.856,3.95,8.808,8.806,8.808h36.313c4.856,0,8.807-3.951,8.807-8.808V11.1
		c0-4.856-3.95-8.806-8.807-8.806H10.843z"/>
	<path fill="#F48120" d="M23.557,43.205c0,1.852,0.693,2.316,2.081,1.424l26.964-18.706c1.354-0.923,1.354-1.922,0-2.848
		L25.638,4.371c-1.388-0.893-2.081-0.429-2.081,1.428V43.205z"/>
	<g>
		<path fill="#58595B" d="M22.996,24.766c0.022,1.213-0.087,2.332-0.329,3.354c-0.242,1.023-0.767,1.973-1.576,2.85
			c-0.854,0.921-1.885,1.641-3.093,2.156c-1.208,0.518-2.441,0.775-3.7,0.775c-1.247,0-2.427-0.246-3.54-0.741
			c-1.112-0.494-2.09-1.165-2.933-2.015c-0.843-0.848-1.511-1.83-2.006-2.949c-0.495-1.117-0.742-2.312-0.742-3.582
			c0-1.303,0.247-2.525,0.742-3.666c0.495-1.14,1.168-2.138,2.023-2.992c0.854-0.854,1.848-1.528,2.983-2.023
			c1.135-0.494,2.337-0.741,3.607-0.741c1.629,0,3.101,0.388,4.416,1.163c1.314,0.775,2.466,1.837,3.455,3.186l-1.112,0.91
			c-0.843-1.248-1.834-2.211-2.975-2.891c-1.141-0.68-2.424-1.02-3.851-1.02c-1.057,0-2.063,0.219-3.017,0.657
			c-0.956,0.438-1.79,1.026-2.503,1.762c-0.713,0.736-1.284,1.587-1.71,2.553c-0.427,0.967-0.641,1.978-0.641,3.034
			c0,1.09,0.208,2.124,0.624,3.102c0.416,0.977,0.98,1.834,1.694,2.57c0.714,0.735,1.548,1.316,2.503,1.744
			c0.955,0.427,1.972,0.641,3.051,0.641c0.944,0,1.851-0.186,2.722-0.557c0.871-0.371,1.666-0.854,2.385-1.449
			c0.742-0.607,1.267-1.273,1.576-1.998c0.309-0.725,0.486-1.57,0.531-2.536h-6.321v-1.298H22.996z"/>
		<path fill="#58595B" d="M43.053,24.546c0,1.292-0.247,2.508-0.741,3.649c-0.495,1.141-1.169,2.13-2.022,2.967
			s-1.844,1.503-2.967,1.997c-1.123,0.495-2.32,0.741-3.59,0.741s-2.467-0.246-3.59-0.741c-1.124-0.494-2.113-1.16-2.966-1.997
			c-0.854-0.837-1.528-1.826-2.023-2.967s-0.742-2.356-0.742-3.649c0-1.281,0.247-2.486,0.742-3.616
			c0.495-1.129,1.168-2.121,2.023-2.975c0.854-0.854,1.842-1.528,2.966-2.023c1.124-0.494,2.321-0.741,3.59-0.741
			s2.467,0.247,3.59,0.741c1.123,0.495,2.113,1.169,2.967,2.023s1.527,1.846,2.022,2.975C42.806,22.06,43.053,23.265,43.053,24.546z
			 M41.637,24.546c0-1.079-0.207-2.107-0.623-3.084s-0.986-1.829-1.711-2.554s-1.564-1.3-2.52-1.728
			c-0.955-0.427-1.973-0.641-3.051-0.641c-1.079,0-2.102,0.214-3.068,0.641c-0.966,0.427-1.806,1.003-2.52,1.728
			c-0.713,0.725-1.278,1.576-1.694,2.554s-0.624,2.006-0.624,3.084c0,1.09,0.208,2.124,0.624,3.102
			c0.416,0.977,0.98,1.834,1.694,2.57c0.714,0.735,1.554,1.316,2.52,1.744c0.967,0.427,1.989,0.641,3.068,0.641
			c1.078,0,2.096-0.214,3.051-0.641c0.955-0.428,1.795-1.009,2.52-1.744c0.725-0.736,1.295-1.594,1.711-2.57
			C41.43,26.67,41.637,25.636,41.637,24.546z"/>
	</g>
	<path fill="#58595B" d="M30.871,29.846c0,0.535,0.197,0.664,0.592,0.412l7.711-5.353c0.387-0.262,0.387-0.549,0-0.811l-7.711-5.349
		c-0.395-0.255-0.592-0.122-0.592,0.409V29.846z"/>
</g>
</svg>
