<?xml version="1.0" encoding="utf-8"?>
<!-- Generator: Adobe Illustrator 15.0.0, SVG Export Plug-In . SVG Version: 6.00 Build 0)  -->
<!DOCTYPE svg PUBLIC "-//W3C//DTD SVG 1.1//EN" "http://www.w3.org/Graphics/SVG/1.1/DTD/svg11.dtd">
<svg version="1.1" id="Layer_1" xmlns="http://www.w3.org/2000/svg" xmlns:xlink="http://www.w3.org/1999/xlink" x="0px" y="0px"
	 width="516px" height="676.715px" viewBox="0 0 516 676.715" enable-background="new 0 0 516 676.715" xml:space="preserve">
<g>
	<g>
		<g>
			<g>
				<path fill="#F48120" d="M222.226,51.469l5.097,8.67l0.032,0.018c0.864,1.732,2.521,3.008,4.501,3.318v0.072h23.104V51.469
					H222.226z"/>
				<path fill="#F48120" d="M309.367,36.756V36.75l-5.152-8.578l-0.023-0.018c-0.872-1.721-2.536-3.057-4.548-3.336H254.96v11.937
					h21.125v53.441h12.173V36.756H309.367z"/>
				<path fill="#F48120" d="M420.032,36.899v-12.08h-42.64l0,0v51.66c0,0.313,5.604,10.446,5.604,10.446s1.566,3.272,5.161,3.272
					h31.874V78.105h-30.464V63.412h30.464V51.334h-30.464V36.899H420.032z"/>
				<path fill="#F48120" d="M483.593,24.792H468.1l-24.31,28.605v-28.61l-12.176,0.069V90.16h12.176V71.638l8.106-9.527
					l16.339,24.949h0.003l0.374,0.567c0.648,0.923,2.295,2.588,5.384,2.597h9.504l-23.914-37.09L483.593,24.792z"/>
				<path fill="#F48120" d="M338.676,59.459l18.235,27.952c0.564,0.821,2.261,2.786,5.529,2.813h9.564l-15.027-23.32
					c0.498-0.314,0.973-0.648,1.447-1.013c1.801-1.379,3.379-3.002,4.669-4.845c1.313-1.851,2.319-3.891,3.028-6.154
					c0.707-2.256,1.069-4.651,1.069-7.196c0-3.195-0.595-6.174-1.804-8.942c-0.849-1.955-1.92-3.716-3.208-5.325
					c-0.531-0.685-1.12-1.339-1.751-1.949c-2.102-2.061-4.574-3.707-7.392-4.902c-2.678-1.11-5.555-1.704-8.583-1.758h-24.213
					v65.378l12.195-0.023V36.899h10.075c0,0,11.29,0,11.29,10.797C353.802,61.037,338.676,59.459,338.676,59.459"/>
			</g>
			<g>
				<g>
					<g>
						<defs>
							<path id="SVGID_19_" d="M32.435,79.709c0,3.788,2.676,8.424,5.958,10.333l38.481,22.201c3.27,1.89,8.637,1.89,11.913,0
								l13.831-7.979V74.813L82.842,86.229v0.017l-0.011-0.017l-0.009,0.017l-50.388-29.27V79.709z"/>
						</defs>
						<use xlink:href="#SVGID_19_"  overflow="visible" fill="#58595B"/>
						<clipPath id="SVGID_1_">
							<use xlink:href="#SVGID_19_"  overflow="visible"/>
						</clipPath>
						<rect x="32.435" y="56.976" clip-path="url(#SVGID_1_)" fill="#58595B" width="70.182" height="57.157"/>
					</g>
					<g>
						<defs>
							<path id="SVGID_21_" d="M76.873,2.75L38.392,24.966c-3.281,1.899-5.958,6.542-5.958,10.322v15.787L57.942,65.89V43.133h0.009
								l-0.009-0.026l50.316-29.111L88.786,2.75c-1.646-0.944-3.805-1.413-5.963-1.413C80.667,1.338,78.507,1.807,76.873,2.75"/>
						</defs>
						<use xlink:href="#SVGID_21_"  overflow="visible" fill="#58595B"/>
						<clipPath id="SVGID_2_">
							<use xlink:href="#SVGID_21_"  overflow="visible"/>
						</clipPath>
						<polygon clip-path="url(#SVGID_2_)" fill="#58595B" points="136.275,17.563 89.192,98.792 4.428,49.65 51.5,-31.564 						"/>
					</g>
					<g>
						<defs>
							<path id="SVGID_23_" d="M87.885,31.681l19.829,11.452v58.194l19.546-11.286c3.27-1.908,5.952-6.544,5.952-10.333V35.288
								c0-3.779-2.682-8.423-5.952-10.322l-13.891-8.028L87.885,31.681z"/>
						</defs>
						<use xlink:href="#SVGID_23_"  overflow="visible" fill="#58595B"/>
						<clipPath id="SVGID_3_">
							<use xlink:href="#SVGID_23_"  overflow="visible"/>
						</clipPath>
						<polygon clip-path="url(#SVGID_3_)" fill="#58595B" points="120.549,-3.391 171.077,77.748 100.555,121.657 50.021,40.532 
													"/>
					</g>
					<g>
						<defs>
							<polygon id="SVGID_25_" points="32.411,51.07 57.924,65.884 57.924,43.113 57.924,43.107 57.924,43.096 							"/>
						</defs>
						<use xlink:href="#SVGID_25_"  overflow="visible" fill="#58595B"/>
						<clipPath id="SVGID_4_">
							<use xlink:href="#SVGID_25_"  overflow="visible"/>
						</clipPath>
						<polygon clip-path="url(#SVGID_4_)" fill="#58595B" points="46.621,78.548 21.108,55.767 43.738,30.417 69.245,53.196 						
							"/>
					</g>
					<g>
						<defs>
							<polygon id="SVGID_27_" points="87.862,31.669 107.697,43.113 113.344,16.927 							"/>
						</defs>
						<use xlink:href="#SVGID_27_"  overflow="visible" fill="#58595B"/>
						<clipPath id="SVGID_5_">
							<use xlink:href="#SVGID_27_"  overflow="visible"/>
						</clipPath>
						<polygon clip-path="url(#SVGID_5_)" fill="#58595B" points="110.212,51.475 79.279,39.901 90.993,8.571 121.936,20.145 						
							"/>
					</g>
					<g>
						<defs>
							<polygon id="SVGID_29_" points="82.822,86.226 102.599,104.25 102.599,74.79 							"/>
						</defs>
						<use xlink:href="#SVGID_29_"  overflow="visible" fill="#58595B"/>
						<clipPath id="SVGID_6_">
							<use xlink:href="#SVGID_29_"  overflow="visible"/>
						</clipPath>
						<polygon clip-path="url(#SVGID_6_)" fill="#58595B" points="68.18,87.984 93.756,64.971 117.241,91.072 91.673,114.091 						
							"/>
					</g>
				</g>
				<g>
					<g>
						<defs>
							<path id="SVGID_31_" d="M192.9,77.89h-33.619l5.161,8.646l0.012,0.023c1.007,1.992,3.071,3.362,5.472,3.362
								c0,0,0.043-0.005,0.066-0.005l25.91,0.005c1.9,0,4.235-1.333,5.19-2.956l4.07-6.98l-6.69-11.64L192.9,77.89z"/>
						</defs>
						<use xlink:href="#SVGID_31_"  overflow="visible" fill="#58595B"/>
						<clipPath id="SVGID_7_">
							<use xlink:href="#SVGID_31_"  overflow="visible"/>
						</clipPath>
						<polygon clip-path="url(#SVGID_7_)" fill="#58595B" points="214.938,83.675 172.551,110.726 149.49,74.591 191.887,47.541 
													"/>
					</g>
					<g>
						<defs>
							<path id="SVGID_33_" d="M163.125,36.835l-1.1,1.877l-2.737,4.697c-0.95,1.633-0.95,4.303-0.006,5.933l4.977,8.692
								l1.289,2.256c0.936,1.64,3.267,2.961,5.167,2.961h10.063h0.21h14.55l2.936,5.092l6.69,11.64l5.062-8.676
								c0.945-1.625,0.962-4.289,0.018-5.929l-1.215-2.128l-5.221-9.058c-0.93-1.634-3.255-2.961-5.156-2.961h-3.114h-2.81
								l-0.003-0.006h-18.879l-2.795-4.853l-0.129-0.233l-6.554-11.4L163.125,36.835z"/>
						</defs>
						<use xlink:href="#SVGID_33_"  overflow="visible" fill="#58595B"/>
						<clipPath id="SVGID_8_">
							<use xlink:href="#SVGID_33_"  overflow="visible"/>
						</clipPath>
						<polygon clip-path="url(#SVGID_8_)" fill="#58595B" points="183.688,8.343 233.787,56.452 185.832,106.391 135.734,58.288 
													"/>
					</g>
					<g>
						<defs>
							<path id="SVGID_35_" d="M199.533,24.819h-19.291h-6.629c-1.893,0-4.236,1.318-5.181,2.931l-5.308,9.086l-1.1,1.877
								l-2.737,4.697c-0.95,1.633-0.95,4.303-0.006,5.933l4.977,8.692l6.792-11.661l0.075-0.124l5.495-9.416h7.213h26.409
								l-5.167-8.643l-0.011-0.02c-1.005-1.989-3.072-3.354-5.475-3.354C199.576,24.819,199.547,24.819,199.533,24.819"/>
						</defs>
						<use xlink:href="#SVGID_35_"  overflow="visible" fill="#58595B"/>
						<clipPath id="SVGID_9_">
							<use xlink:href="#SVGID_35_"  overflow="visible"/>
						</clipPath>
						<polygon clip-path="url(#SVGID_9_)" fill="#58595B" points="143.184,34.599 194.933,1.131 225.389,48.243 173.647,81.701 
													"/>
					</g>
				</g>
			</g>
		</g>
		<g>
			<g>
				<path fill="#F48120" d="M422.004,584.573H93.996C42.719,584.573,1,542.854,1,491.577V249.472
					c0-51.281,41.719-93.001,92.996-93.001h328.008c51.277,0,92.996,41.72,92.996,93.001v242.104
					C515,542.854,473.281,584.573,422.004,584.573z M93.996,165.313c-46.403,0-84.153,37.753-84.153,84.159v242.104
					c0,46.402,37.75,84.154,84.153,84.154h328.008c46.402,0,84.154-37.752,84.154-84.154V249.472
					c0-46.406-37.752-84.159-84.154-84.159H93.996z"/>
				<path fill="#F48120" d="M208.838,539.478c0,16.734,6.257,20.931,18.764,12.883l243.589-168.968
					c12.233-8.36,12.233-17.375,0-25.733L227.602,188.688c-12.506-8.042-18.764-3.865-18.764,12.881V539.478z"/>
				<g>
					<path fill="#58595B" d="M203.727,372.884c0.202,10.962-0.788,21.063-2.969,30.299c-2.184,9.237-6.928,17.813-14.236,25.731
						c-7.715,8.323-17.029,14.82-27.939,19.488c-10.912,4.67-22.053,7.004-33.42,7.004c-11.267,0-21.925-2.231-31.974-6.699
						c-10.049-4.466-18.879-10.529-26.492-18.194c-7.613-7.663-13.653-16.544-18.118-26.646
						c-4.468-10.099-6.699-20.882-6.699-32.354c0-11.773,2.231-22.813,6.699-33.116c4.465-10.301,10.555-19.31,18.271-27.025
						c7.712-7.712,16.696-13.803,26.949-18.271c10.251-4.465,21.111-6.699,32.583-6.699c14.716,0,28.015,3.502,39.891,10.505
						c11.876,7.004,22.279,16.596,31.212,28.776l-10.049,8.222c-7.613-11.267-16.572-19.969-26.873-26.112
						c-10.303-6.14-21.901-9.211-34.79-9.211c-9.542,0-18.627,1.979-27.254,5.938c-8.628,3.959-16.165,9.264-22.61,15.911
						c-6.447,6.649-11.598,14.338-15.454,23.067c-3.858,8.731-5.786,17.866-5.786,27.406c0,9.847,1.877,19.185,5.634,28.015
						c3.754,8.831,8.854,16.572,15.301,23.22c6.445,6.648,13.981,11.901,22.61,15.758c8.626,3.858,17.814,5.786,27.559,5.786
						c8.526,0,16.722-1.675,24.589-5.024c7.865-3.35,15.047-7.713,21.544-13.094c6.699-5.481,11.443-11.496,14.236-18.043
						c2.791-6.547,4.389-14.184,4.796-22.914h-57.096v-11.724H203.727z"/>
					<path fill="#58595B" d="M384.91,370.905c0,11.674-2.234,22.662-6.699,32.963c-4.468,10.304-10.558,19.237-18.271,26.797
						c-7.715,7.563-16.648,13.577-26.797,18.043c-10.151,4.468-20.962,6.699-32.431,6.699c-11.472,0-22.281-2.231-32.431-6.699
						c-10.151-4.466-19.084-10.479-26.796-18.043c-7.715-7.56-13.805-16.493-18.271-26.797c-4.468-10.301-6.699-21.289-6.699-32.963
						c0-11.571,2.231-22.458,6.699-32.659c4.465-10.201,10.555-19.158,18.271-26.873c7.712-7.712,16.646-13.803,26.796-18.271
						c10.149-4.465,20.959-6.699,32.431-6.699c11.469,0,22.279,2.234,32.431,6.699c10.148,4.468,19.082,10.558,26.797,18.271
						c7.713,7.715,13.803,16.672,18.271,26.873C382.676,348.447,384.91,359.333,384.91,370.905z M372.121,370.905
						c0-9.744-1.88-19.032-5.634-27.863c-3.757-8.831-8.907-16.52-15.454-23.066s-14.136-11.748-22.762-15.606
						c-8.629-3.856-17.814-5.786-27.559-5.786s-18.981,1.93-27.71,5.786c-8.731,3.858-16.318,9.059-22.763,15.606
						c-6.447,6.547-11.547,14.236-15.301,23.066c-3.757,8.831-5.634,18.119-5.634,27.863c0,9.847,1.877,19.185,5.634,28.015
						c3.754,8.831,8.854,16.572,15.301,23.22c6.445,6.648,14.031,11.901,22.763,15.758c8.729,3.858,17.966,5.786,27.71,5.786
						s18.93-1.928,27.559-5.786c8.626-3.856,16.215-9.109,22.762-15.758c6.547-6.647,11.697-14.389,15.454-23.22
						C370.241,390.089,372.121,380.751,372.121,370.905z"/>
				</g>
			</g>
			<path fill="#58595B" d="M274.89,418.824c0,4.797,1.785,5.973,5.363,3.699l69.632-48.313c3.497-2.397,3.497-4.979,0-7.356
				l-69.632-48.311c-3.578-2.306-5.363-1.111-5.363,3.681V418.824z"/>
		</g>
	</g>
	<g>
		<g>
			<path fill="#58595B" d="M3.729,648.412v-3.157h38.612v3.157H3.729z M21.446,674.808v-20.755h3.179v20.755H21.446z"/>
			<path fill="#58595B" d="M48.022,674.808v-29.554H51.2v29.554H48.022z M56.88,654.053h20.896v20.755h-3.179V657.21H56.88V654.053z
				"/>
			<path fill="#58595B" d="M83.456,654.053h29.754v11.956H96.744v-3.157h13.288v-5.642H86.634v14.44h26.576v3.157H83.456V654.053z"
				/>
			<path fill="#58595B" d="M145.465,645.254h38.612v16.355h-35.434v13.198h-3.178v-16.355h35.434v-10.041h-35.434V645.254z"/>
			<path fill="#58595B" d="M189.758,654.053h29.753v20.755h-29.753v-11.956h3.178v8.799h23.397v-14.44h-26.576V654.053z"/>
			<path fill="#58595B" d="M225.191,654.053h3.179v17.598h26.575v3.157h-29.754V654.053z M238.479,666.009v-11.956h3.179v11.956
				H238.479z M251.767,666.009v-11.956h3.178v11.956H251.767z"/>
			<path fill="#58595B" d="M260.625,654.053h29.754v11.956h-16.465v-3.157h13.287v-5.642h-23.396v14.44h26.574v3.157h-29.754
				V654.053z"/>
			<path fill="#58595B" d="M296.059,674.808v-20.755h29.754v3.157h-26.574v17.598H296.059z"/>
			<path fill="#58595B" d="M358.068,645.254h38.613v29.554h-38.613v-16.355h3.178v13.198h32.256v-23.239h-35.434V645.254z"/>
			<path fill="#58595B" d="M402.361,657.21v-3.157h29.754v3.157h-17.717v17.598h-3.18V657.21H402.361z M411.219,648.412v-3.157
				h20.896v3.157H411.219z"/>
			<path fill="#58595B" d="M464.369,674.808v-29.554h3.18v29.554H464.369z"/>
			<path fill="#58595B" d="M473.229,648.412v-3.157h38.613v3.157H473.229z M490.945,674.808v-20.755h3.178v20.755H490.945z"/>
		</g>
	</g>
</g>
</svg>
