<?xml version="1.0" encoding="utf-8"?>
<!-- Generator: Adobe Illustrator 15.0.0, SVG Export Plug-In . SVG Version: 6.00 Build 0)  -->
<!DOCTYPE svg PUBLIC "-//W3C//DTD SVG 1.1//EN" "http://www.w3.org/Graphics/SVG/1.1/DTD/svg11.dtd">
<svg version="1.1" id="Layer_1" xmlns="http://www.w3.org/2000/svg" xmlns:xlink="http://www.w3.org/1999/xlink" x="0px" y="0px"
	 width="85px" height="22px" viewBox="0 0 85 22" enable-background="new 0 0 85 22" xml:space="preserve">
<g>
	<g>
		<path fill="none" stroke="#FFFFFF" stroke-width="0.25" stroke-miterlimit="10" d="M35.786,9.869l0.955,1.627h0.008
			c0.158,0.328,0.468,0.568,0.84,0.622v0.016h4.343V9.869H35.786z"/>
		<path fill="none" stroke="#FFFFFF" stroke-width="0.25" stroke-miterlimit="10" d="M52.141,7.105L52.141,7.105l-0.967-1.611H51.17
			c-0.162-0.325-0.475-0.576-0.852-0.632l-8.387,0.004v2.239h3.959v10.03h2.291V7.105H52.141z"/>
		<path fill="none" stroke="#FFFFFF" stroke-width="0.25" stroke-miterlimit="10" d="M72.914,7.132v-2.27h-8.002v0.004v9.695
			c0,0.059,1.049,1.963,1.049,1.963s0.295,0.611,0.975,0.611h5.979v-2.27h-5.717v-2.754h5.717V9.844h-5.717V7.132H72.914z"/>
		<path fill="none" stroke="#FFFFFF" stroke-width="0.25" stroke-miterlimit="10" d="M84.846,4.862h-2.906l-4.564,5.368V4.858
			l-2.291,0.016V17.13h2.291v-3.477l1.521-1.788l3.064,4.685h0.004l0.066,0.107c0.129,0.17,0.432,0.479,1.014,0.486h1.783
			l-4.486-6.968L84.846,4.862z"/>
		<path fill="none" stroke="#FFFFFF" stroke-width="0.25" stroke-miterlimit="10" d="M57.645,11.367l3.426,5.245
			c0.102,0.154,0.424,0.523,1.035,0.531h1.793l-2.818-4.379c0.092-0.059,0.182-0.121,0.268-0.189
			c0.342-0.258,0.637-0.563,0.879-0.909c0.248-0.346,0.432-0.73,0.568-1.154c0.133-0.425,0.203-0.875,0.203-1.352
			c0-0.601-0.113-1.162-0.344-1.682c-0.154-0.365-0.357-0.697-0.598-0.996c-0.102-0.129-0.213-0.251-0.328-0.365
			c-0.396-0.392-0.859-0.693-1.391-0.918c-0.5-0.215-1.039-0.325-1.613-0.333l-4.541-0.004v12.273l2.289-0.004v-10h1.893
			c0,0,2.117,0,2.117,2.028C60.482,11.666,57.645,11.367,57.645,11.367"/>
	</g>
	<g>
		<g>
			<g>
				<defs>
					<path id="SVGID_19_" d="M0.154,15.171c0,0.711,0.504,1.582,1.121,1.938l7.22,4.168c0.616,0.354,1.624,0.354,2.239,0
						l2.599-1.498v-5.527l-3.712,2.143H9.617l0,0l0,0l-9.463-5.491V15.171z"/>
				</defs>
				<clipPath id="SVGID_1_">
					<use xlink:href="#SVGID_19_"  overflow="visible"/>
				</clipPath>
				
					<rect x="0.154" y="10.902" clip-path="url(#SVGID_1_)" fill="none" stroke="#FFFFFF" stroke-width="0.25" stroke-miterlimit="10" width="13.179" height="10.728"/>
				<use xlink:href="#SVGID_19_"  overflow="visible" fill="none" stroke="#FFFFFF" stroke-width="0.25" stroke-miterlimit="10"/>
			</g>
			<g>
				<defs>
					<path id="SVGID_21_" d="M8.495,0.724l-7.22,4.169C0.659,5.247,0.154,6.121,0.154,6.83v2.965l4.793,2.78V8.301l0,0V8.298
						l9.444-5.461l-3.657-2.113c-0.306-0.178-0.712-0.266-1.117-0.266C9.21,0.458,8.806,0.546,8.495,0.724"/>
				</defs>
				<clipPath id="SVGID_2_">
					<use xlink:href="#SVGID_21_"  overflow="visible"/>
				</clipPath>
				
					<rect x="-1.537" y="-2.678" transform="matrix(0.5014 -0.8652 0.8652 0.5014 -2.0125 9.5436)" clip-path="url(#SVGID_2_)" fill="none" stroke="#FFFFFF" stroke-width="0.25" stroke-miterlimit="10" width="17.624" height="18.391"/>
				<use xlink:href="#SVGID_21_"  overflow="visible" fill="none" stroke="#FFFFFF" stroke-width="0.25" stroke-miterlimit="10"/>
			</g>
			<g>
				<defs>
					<path id="SVGID_23_" d="M10.565,6.154l3.724,2.146v10.923l3.67-2.115c0.612-0.355,1.117-1.227,1.117-1.938V6.83
						c0-0.709-0.505-1.583-1.117-1.938L15.35,3.388L10.565,6.154z"/>
				</defs>
				<clipPath id="SVGID_3_">
					<use xlink:href="#SVGID_23_"  overflow="visible"/>
				</clipPath>
				
					<rect x="5.848" y="3.507" transform="matrix(-0.5287 -0.8488 0.8488 -0.5287 13.0571 29.8631)" clip-path="url(#SVGID_3_)" fill="none" stroke="#FFFFFF" stroke-width="0.25" stroke-miterlimit="10" width="17.941" height="15.599"/>
				<use xlink:href="#SVGID_23_"  overflow="visible" fill="none" stroke="#FFFFFF" stroke-width="0.25" stroke-miterlimit="10"/>
			</g>
			<g>
				<defs>
					<polygon id="SVGID_25_" points="0.154,9.795 4.938,12.573 4.938,8.298 4.947,8.298 4.943,8.298 					"/>
				</defs>
				<clipPath id="SVGID_4_">
					<use xlink:href="#SVGID_25_"  overflow="visible"/>
				</clipPath>
				<polygon clip-path="url(#SVGID_4_)" fill="none" stroke="#FFFFFF" stroke-width="0.25" stroke-miterlimit="10" points="
					2.82,14.948 -1.972,10.678 2.275,5.914 7.068,10.193 				"/>
				<use xlink:href="#SVGID_25_"  overflow="visible" fill="none" stroke="#FFFFFF" stroke-width="0.25" stroke-miterlimit="10"/>
			</g>
			<g>
				<defs>
					<polygon id="SVGID_27_" points="10.562,6.151 14.284,8.298 15.346,3.388 					"/>
				</defs>
				<clipPath id="SVGID_5_">
					<use xlink:href="#SVGID_27_"  overflow="visible"/>
				</clipPath>
				
					<rect x="9.852" y="2.704" transform="matrix(0.9366 0.3504 -0.3504 0.9366 2.8686 -4.1687)" clip-path="url(#SVGID_5_)" fill="none" stroke="#FFFFFF" stroke-width="0.25" stroke-miterlimit="10" width="6.204" height="6.277"/>
				<use xlink:href="#SVGID_27_"  overflow="visible" fill="none" stroke="#FFFFFF" stroke-width="0.25" stroke-miterlimit="10"/>
			</g>
			<g>
				<defs>
					<polygon id="SVGID_29_" points="9.617,16.392 13.329,19.778 13.329,14.247 					"/>
				</defs>
				<clipPath id="SVGID_6_">
					<use xlink:href="#SVGID_29_"  overflow="visible"/>
				</clipPath>
				
					<rect x="8.245" y="13.713" transform="matrix(-0.7431 0.6692 -0.6692 -0.7431 31.3831 21.9741)" clip-path="url(#SVGID_6_)" fill="none" stroke="#FFFFFF" stroke-width="0.25" stroke-miterlimit="10" width="6.456" height="6.598"/>
				<use xlink:href="#SVGID_29_"  overflow="visible" fill="none" stroke="#FFFFFF" stroke-width="0.25" stroke-miterlimit="10"/>
			</g>
		</g>
		<g>
			<g>
				<defs>
					<path id="SVGID_31_" d="M30.276,14.827h-6.308l0.967,1.623h0.008c0.184,0.377,0.571,0.635,1.021,0.635c0.007,0,0.011,0,0.014,0
						h4.863c0.358,0,0.797-0.246,0.974-0.553l0.764-1.311l-1.257-2.188L30.276,14.827z"/>
				</defs>
				<clipPath id="SVGID_7_">
					<use xlink:href="#SVGID_31_"  overflow="visible"/>
				</clipPath>
				
					<rect x="23.554" y="11.037" transform="matrix(0.843 -0.5379 0.5379 0.843 -3.6622 17.5745)" clip-path="url(#SVGID_7_)" fill="none" stroke="#FFFFFF" stroke-width="0.25" stroke-miterlimit="10" width="9.44" height="8.046"/>
				<use xlink:href="#SVGID_31_"  overflow="visible" fill="none" stroke="#FFFFFF" stroke-width="0.25" stroke-miterlimit="10"/>
			</g>
			<g>
				<defs>
					<path id="SVGID_33_" d="M24.691,7.12l-0.207,0.354l-0.517,0.883c-0.178,0.305-0.178,0.803-0.004,1.109l0.938,1.636l0.244,0.423
						c0.177,0.307,0.613,0.558,0.967,0.558h1.892h0.041h2.729l0.547,0.951l1.257,2.188l0.952-1.631
						c0.178-0.307,0.181-0.807,0.004-1.111l-0.23-0.396l-0.977-1.7c-0.177-0.307-0.611-0.558-0.969-0.558h-0.585h-0.526V9.82h-3.546
						l-0.523-0.911L26.153,8.87L24.92,6.726L24.691,7.12z"/>
				</defs>
				<clipPath id="SVGID_8_">
					<use xlink:href="#SVGID_33_"  overflow="visible"/>
				</clipPath>
				
					<rect x="22.233" y="4.475" transform="matrix(-0.7213 -0.6926 0.6926 -0.7213 41.89 38.8029)" clip-path="url(#SVGID_8_)" fill="none" stroke="#FFFFFF" stroke-width="0.25" stroke-miterlimit="10" width="13.037" height="12.998"/>
				<use xlink:href="#SVGID_33_"  overflow="visible" fill="none" stroke="#FFFFFF" stroke-width="0.25" stroke-miterlimit="10"/>
			</g>
			<g>
				<defs>
					<path id="SVGID_35_" d="M31.524,4.862h-3.62h-1.246c-0.359,0-0.794,0.247-0.971,0.554L24.691,7.12l-0.207,0.354l-0.517,0.883
						c-0.178,0.305-0.178,0.803-0.004,1.109l0.938,1.636l1.277-2.193l0.014-0.021l1.029-1.768h1.355h4.958l-0.97-1.623L32.56,5.494
						c-0.184-0.374-0.574-0.632-1.023-0.632C31.531,4.862,31.528,4.862,31.524,4.862"/>
				</defs>
				<clipPath id="SVGID_9_">
					<use xlink:href="#SVGID_35_"  overflow="visible"/>
				</clipPath>
				
					<rect x="22.879" y="2.718" transform="matrix(-0.8397 0.5431 -0.5431 -0.8397 57.0669 -0.8816)" clip-path="url(#SVGID_9_)" fill="none" stroke="#FFFFFF" stroke-width="0.25" stroke-miterlimit="10" width="11.568" height="10.528"/>
				<use xlink:href="#SVGID_35_"  overflow="visible" fill="none" stroke="#FFFFFF" stroke-width="0.25" stroke-miterlimit="10"/>
			</g>
		</g>
	</g>
</g>
</svg>
